<svg version="1.2" baseProfile="tiny-ps" xmlns="http://www.w3.org/2000/svg" viewBox="0 0 212 212" width="212" height="212">
	<style>
		tspan { white-space:pre }
		.shp0 { fill: #222 } 
	</style>
	<path id="Layer" fill-rule="evenodd" class="shp0" d="M106 0.16C119.9 0.16 133.66 2.9 146.5 8.21C159.34 13.53 171.01 21.33 180.84 31.16C190.67 40.99 198.46 52.65 203.78 65.49C209.1 78.34 211.84 92.1 211.84 106C211.84 119.9 209.1 133.66 203.78 146.5C198.46 159.34 190.67 171.01 180.84 180.84C171.01 190.67 159.34 198.46 146.5 203.78C133.66 209.1 119.9 211.84 106 211.84C92.1 211.84 78.34 209.1 65.5 203.78C52.66 198.46 40.99 190.67 31.16 180.84C21.33 171.01 13.54 159.34 8.22 146.5C2.9 133.66 0.16 119.9 0.16 106C0.16 92.1 2.9 78.34 8.22 65.49C13.54 52.65 21.33 40.99 31.16 31.16C40.99 21.33 52.66 13.53 65.5 8.21C78.34 2.9 92.1 0.16 106 0.16ZM106 32.92C100.84 33.04 96.6 34.79 93.26 38.19C89.51 41.77 87.63 46.13 87.63 51.29C87.63 56.44 89.51 60.69 93.26 64.03C96.6 67.78 100.84 69.66 106 69.66C111.16 69.66 115.55 67.78 119.18 64.03C122.52 60.69 124.25 56.44 124.37 51.29C124.25 46.13 122.52 41.77 119.18 38.19C115.55 34.79 111.16 33.04 106 32.92ZM89.65 179.08L122.44 179.08L122.44 86.71L89.65 86.71L89.65 179.08Z" />
</svg>